<?xml version="1.0" encoding="UTF-8"?>
<svg id="Layer_2" data-name="Layer 2" xmlns="http://www.w3.org/2000/svg" viewBox="0 0 16 16">
  <defs>
    <style>
      .cls-1 {
        fill: #231f20;
      }
    </style>
  </defs>
  <g id="Layer_1-2" data-name="Layer 1">
    <path class="cls-1" d="M16,1.5V.5c0-.28-.22-.5-.5-.5h-1c-.82,0-1.54.4-2,1.02-.46-.61-1.18-1.02-2-1.02h-5c-.82,0-1.54.4-2,1.02-.46-.61-1.18-1.02-2-1.02H.5C.22,0,0,.22,0,.5v1c0,.82.4,1.54,1.02,2-.61.46-1.02,1.18-1.02,2v5c0,.82.4,1.54,1.02,2-.61.46-1.02,1.18-1.02,2v1c0,.28.22.5.5.5h1c.82,0,1.54-.4,2-1.02.46.61,1.18,1.02,2,1.02h5c.82,0,1.54-.4,2-1.02.46.61,1.18,1.02,2,1.02h1c.28,0,.5-.22.5-.5v-1c0-.82-.4-1.54-1.02-2,.61-.46,1.02-1.18,1.02-2v-5c0-.82-.4-1.54-1.02-2,.61-.46,1.02-1.18,1.02-2ZM10,1h.5c.83,0,1.5.67,1.5,1.5v.5h-.5c-.83,0-1.5-.67-1.5-1.5v-.5ZM5.5,1h.5v.5c0,.83-.67,1.5-1.5,1.5h-.5v-.5c0-.83.67-1.5,1.5-1.5ZM1,1.5v-.5h.5c.83,0,1.5.67,1.5,1.5v.5h-.5c-.83,0-1.5-.67-1.5-1.5ZM1,5.5c0-.83.67-1.5,1.5-1.5h.5v.5c0,.83-.67,1.5-1.5,1.5h-.5v-.5ZM1,10.5v-.5h.5c.83,0,1.5.67,1.5,1.5v.5h-.5c-.83,0-1.5-.67-1.5-1.5ZM1.5,15h-.5v-.5c0-.83.67-1.5,1.5-1.5h.5v.5c0,.83-.67,1.5-1.5,1.5ZM6,15h-.5c-.83,0-1.5-.67-1.5-1.5v-.5h.5c.83,0,1.5.67,1.5,1.5v.5ZM9,14.5v.5h-2v-.5c0-1.38-1.12-2.5-2.5-2.5h-.5v-.5c0-1.38-1.12-2.5-2.5-2.5h-.5v-2h.5c1.38,0,2.5-1.12,2.5-2.5v-.5h.5c1.38,0,2.5-1.12,2.5-2.5v-.5h2v.5c0,1.38,1.12,2.5,2.5,2.5h.5v.5c0,1.38,1.12,2.5,2.5,2.5h.5v2h-.5c-1.38,0-2.5,1.12-2.5,2.5v.5h-.5c-1.38,0-2.5,1.12-2.5,2.5ZM10.5,15h-.5v-.5c0-.83.67-1.5,1.5-1.5h.5v.5c0,.83-.67,1.5-1.5,1.5ZM15,14.5v.5h-.5c-.83,0-1.5-.67-1.5-1.5v-.5h.5c.83,0,1.5.67,1.5,1.5ZM15,10.5c0,.83-.67,1.5-1.5,1.5h-.5v-.5c0-.83.67-1.5,1.5-1.5h.5v.5ZM15,5.5v.5h-.5c-.83,0-1.5-.67-1.5-1.5v-.5h.5c.83,0,1.5.67,1.5,1.5ZM15,1.5c0,.83-.67,1.5-1.5,1.5h-.5v-.5c0-.83.67-1.5,1.5-1.5h.5v.5Z"/>
  </g>
</svg>